# xmcd CD database file
#
# Track frame offsets:
#	150
#	9505
#	19047
#	30142
#	40908
#	53757
#	66768
#	78137
#	89278
#	98492
#	112231
#	121767
#	131772
#	142427
#	154288
#	163194
#
# Disc length: 2333 seconds
#
# Revision: 1
# Processed by: cddbd v1.5.2PL0 Copyright (c) Steve Scherf et al.
# Submitted via: CDex 1.51
#
DISCID=cb091b10
DTITLE=Webb Pierce - All Hits (Disk 2)
DYEAR=2010
DGENRE=Country
TTITLE0=In the Jailhouse Now
TTITLE1=I'm Gonna Fall Out of Love With You
TTITLE2=I Don't Care
TTITLE3=Your Good for Nothing Heart
TTITLE4=Love Love Love
TTITLE5=If You Were Mine
TTITLE6=Why Baby Why
TTITLE7=Yes I Know Why
TTITLE8=Cause I Love You
TTITLE9=Lottle Rosa
TTITLE10=Any Old Time
TTITLE11=We'll Find a Way
TTITLE12=Teenage Boogie
TTITLE13=I'm Really Glad You Hurt Me
TTITLE14=I'm Tired
TTITLE15=It's My Way
EXTD=YEAR: 2010
EXTT0=
EXTT1=
EXTT2=
EXTT3=
EXTT4=
EXTT5=
EXTT6=
EXTT7=
EXTT8=
EXTT9=
EXTT10=
EXTT11=
EXTT12=
EXTT13=
EXTT14=
EXTT15=
PLAYORDER=
